<svg width="512" height="512" viewBox="0 0 512 512" fill="none" xmlns="http://www.w3.org/2000/svg">
<path d="M512 256C512 397.385 397.385 512 256 512C114.615 512 0 397.385 0 256C0 114.615 114.615 0 256 0C397.385 0 512 114.615 512 256Z" fill="#004AAD"/>
<path d="M144.931 376.295C137.023 366.562 133.069 357.893 133.069 350.289C133.069 342.381 139.609 332.04 152.688 319.265C160.291 311.965 168.352 308.315 176.868 308.315C185.385 308.315 197.247 315.919 212.455 331.127C216.713 336.298 222.796 341.316 230.704 346.183C238.612 350.745 245.912 353.027 252.604 353.027C280.89 353.027 295.034 341.469 295.034 318.352C295.034 311.357 291.08 305.578 283.171 301.015C275.568 296.149 265.987 292.651 254.429 290.522C242.871 288.393 230.4 285.047 217.017 280.485C203.634 275.618 191.164 269.991 179.606 263.604C168.048 257.217 158.314 247.179 150.406 233.492C142.802 219.501 139 202.772 139 183.306C139 156.54 148.886 133.272 168.656 113.502C188.73 93.4273 215.952 83.3901 250.322 83.3901C268.572 83.3901 285.149 85.8233 300.052 90.6899C315.26 95.2523 325.754 99.9667 331.533 104.833L342.939 113.502C352.368 122.322 357.082 129.774 357.082 135.857C357.082 141.941 353.432 150.305 346.132 160.95C335.791 176.158 325.145 183.762 314.196 183.762C307.808 183.762 299.9 180.721 290.471 174.638C289.559 174.029 287.734 172.508 284.996 170.075C282.563 167.642 280.282 165.665 278.153 164.144C271.766 160.19 263.553 158.213 253.516 158.213C243.783 158.213 235.571 160.646 228.879 165.513C222.492 170.075 219.298 176.615 219.298 185.131C219.298 193.343 223.1 200.035 230.704 205.206C238.612 210.376 248.345 213.874 259.903 215.699C271.461 217.524 284.084 220.413 297.771 224.368C311.458 228.017 324.081 232.58 335.639 238.055C347.197 243.529 356.778 253.11 364.382 266.798C372.29 280.181 376.244 296.757 376.244 316.528C376.244 336.298 372.29 353.787 364.382 368.995C356.474 383.899 346.132 395.457 333.358 403.669C308.721 419.789 282.411 427.85 254.429 427.85C240.133 427.85 226.598 426.177 213.823 422.831C201.049 419.181 190.707 414.771 182.799 409.6C166.679 399.867 155.425 390.438 149.038 381.313L144.931 376.295Z" fill="white"/>
</svg>
