<svg width="414" height="202" viewBox="0 0 414 202" fill="none" xmlns="http://www.w3.org/2000/svg">
<path d="M202 101C202 156.781 156.781 202 101 202C45.2192 202 0 156.781 0 101C0 45.2192 45.2192 0 101 0C156.781 0 202 45.2192 202 101Z" fill="#004AAD"/>
<path d="M57.18 148.46C54.06 144.62 52.5 141.2 52.5 138.2C52.5 135.08 55.08 131 60.24 125.96C63.24 123.08 66.42 121.64 69.78 121.64C73.14 121.64 77.82 124.64 83.82 130.64C85.5 132.68 87.9 134.66 91.02 136.58C94.14 138.38 97.02 139.28 99.66 139.28C110.82 139.28 116.4 134.72 116.4 125.6C116.4 122.84 114.84 120.56 111.72 118.76C108.72 116.84 104.94 115.46 100.38 114.62C95.82 113.78 90.9 112.46 85.62 110.66C80.34 108.74 75.42 106.52 70.86 104C66.3 101.48 62.46 97.52 59.34 92.12C56.34 86.6 54.84 80 54.84 72.32C54.84 61.76 58.74 52.58 66.54 44.78C74.46 36.86 85.2 32.9 98.76 32.9C105.96 32.9 112.5 33.86 118.38 35.78C124.38 37.58 128.52 39.44 130.8 41.36L135.3 44.78C139.02 48.26 140.88 51.2 140.88 53.6C140.88 56 139.44 59.3 136.56 63.5C132.48 69.5 128.28 72.5 123.96 72.5C121.44 72.5 118.32 71.3 114.6 68.9C114.24 68.66 113.52 68.06 112.44 67.1C111.48 66.14 110.58 65.36 109.74 64.76C107.22 63.2 103.98 62.42 100.02 62.42C96.18 62.42 92.94 63.38 90.3 65.3C87.78 67.1 86.52 69.68 86.52 73.04C86.52 76.28 88.02 78.92 91.02 80.96C94.14 83 97.98 84.38 102.54 85.1C107.1 85.82 112.08 86.96 117.48 88.52C122.88 89.96 127.86 91.76 132.42 93.92C136.98 96.08 140.76 99.86 143.76 105.26C146.88 110.54 148.44 117.08 148.44 124.88C148.44 132.68 146.88 139.58 143.76 145.58C140.64 151.46 136.56 156.02 131.52 159.26C121.8 165.62 111.42 168.8 100.38 168.8C94.74 168.8 89.4 168.14 84.36 166.82C79.32 165.38 75.24 163.64 72.12 161.6C65.76 157.76 61.32 154.04 58.8 150.44L57.18 148.46Z" fill="white"/>
<path d="M242.1 138.3C244.14 140.34 245.16 144.54 245.16 150.9V151.62C245.16 154.5 245.04 156.66 244.8 158.1C244.68 159.42 244.08 161.04 243 162.96C241.2 166.44 236.64 168.18 229.32 168.18C222.12 168.18 217.32 167.04 214.92 164.76C212.64 162.48 211.5 158.16 211.5 151.8V151.08C211.5 148.32 211.56 146.22 211.68 144.78C211.92 143.34 212.52 141.72 213.48 139.92C215.28 136.32 219.78 134.52 226.98 134.52C234.3 134.52 239.34 135.78 242.1 138.3Z" fill="#004AAD"/>
<path d="M254.575 51.9C254.575 49.14 254.635 47.1 254.755 45.78C254.995 44.34 255.595 42.72 256.555 40.92C258.235 37.68 262.915 36.06 270.595 36.06C278.995 36.06 283.975 38.28 285.535 42.72C286.135 44.76 286.435 47.88 286.435 52.08V152.16C286.435 155.04 286.315 157.14 286.075 158.46C285.955 159.78 285.415 161.34 284.455 163.14C282.775 166.38 278.095 168 270.415 168C262.015 168 257.095 165.72 255.655 161.16C254.935 159.24 254.575 156.18 254.575 151.98V51.9Z" fill="#004AAD"/>
<path d="M314.485 35.88L347.785 36.06C365.185 36.06 380.485 42.36 393.685 54.96C406.885 67.44 413.485 82.86 413.485 101.22C413.485 119.46 407.005 135.12 394.045 148.2C381.205 161.28 365.605 167.82 347.245 167.82H314.305C306.985 167.82 302.425 166.32 300.625 163.32C299.185 160.8 298.465 156.96 298.465 151.8V51.72C298.465 48.84 298.525 46.74 298.645 45.42C298.885 44.1 299.485 42.54 300.445 40.74C302.125 37.5 306.805 35.88 314.485 35.88ZM347.785 135.96C356.425 135.96 364.225 132.78 371.185 126.42C378.145 119.94 381.625 111.84 381.625 102.12C381.625 92.4 378.205 84.3 371.365 77.82C364.645 71.22 356.725 67.92 347.605 67.92H330.325V135.96H347.785Z" fill="#004AAD"/>
</svg>
