<svg width="1111" height="259" viewBox="0 0 1111 259" fill="none" xmlns="http://www.w3.org/2000/svg">
<path d="M934.1 170.3C936.14 172.34 937.16 176.54 937.16 182.9V183.62C937.16 186.5 937.04 188.66 936.8 190.1C936.68 191.42 936.08 193.04 935 194.96C933.2 198.44 928.64 200.18 921.32 200.18C914.12 200.18 909.32 199.04 906.92 196.76C904.64 194.48 903.5 190.16 903.5 183.8V183.08C903.5 180.32 903.56 178.22 903.68 176.78C903.92 175.34 904.52 173.72 905.48 171.92C907.28 168.32 911.78 166.52 918.98 166.52C926.3 166.52 931.34 167.78 934.1 170.3Z" fill="#004AAD"/>
<path d="M948.915 83.9C948.915 81.14 948.975 79.1 949.095 77.78C949.335 76.34 949.935 74.72 950.895 72.92C952.575 69.68 957.255 68.06 964.935 68.06C973.335 68.06 978.315 70.28 979.875 74.72C980.475 76.76 980.775 79.88 980.775 84.08V184.16C980.775 187.04 980.655 189.14 980.415 190.46C980.295 191.78 979.755 193.34 978.795 195.14C977.115 198.38 972.435 200 964.755 200C956.355 200 951.435 197.72 949.995 193.16C949.275 191.24 948.915 188.18 948.915 183.98V83.9Z" fill="#004AAD"/>
<path d="M1011.17 67.88L1044.47 68.06C1061.87 68.06 1077.17 74.36 1090.37 86.96C1103.57 99.44 1110.17 114.86 1110.17 133.22C1110.17 151.46 1103.69 167.12 1090.73 180.2C1077.89 193.28 1062.29 199.82 1043.93 199.82H1010.99C1003.67 199.82 999.105 198.32 997.305 195.32C995.865 192.8 995.145 188.96 995.145 183.8V83.72C995.145 80.84 995.205 78.74 995.325 77.42C995.565 76.1 996.165 74.54 997.125 72.74C998.805 69.5 1003.49 67.88 1011.17 67.88ZM1044.47 167.96C1053.11 167.96 1060.91 164.78 1067.87 158.42C1074.83 151.94 1078.31 143.84 1078.31 134.12C1078.31 124.4 1074.89 116.3 1068.05 109.82C1061.33 103.22 1053.41 99.92 1044.29 99.92H1027.01V167.96H1044.47Z" fill="#004AAD"/>
<path d="M0 129.5C0 57.9791 57.9791 0 129.5 0H769.5C841.021 0 899 57.9791 899 129.5C899 201.021 841.021 259 769.5 259H129.5C57.9791 259 0 201.021 0 129.5Z" fill="#004AAD"/>
<path d="M56.18 176.46C53.06 172.62 51.5 169.2 51.5 166.2C51.5 163.08 54.08 159 59.24 153.96C62.24 151.08 65.42 149.64 68.78 149.64C72.14 149.64 76.82 152.64 82.82 158.64C84.5 160.68 86.9 162.66 90.02 164.58C93.14 166.38 96.02 167.28 98.66 167.28C109.82 167.28 115.4 162.72 115.4 153.6C115.4 150.84 113.84 148.56 110.72 146.76C107.72 144.84 103.94 143.46 99.38 142.62C94.82 141.78 89.9 140.46 84.62 138.66C79.34 136.74 74.42 134.52 69.86 132C65.3 129.48 61.46 125.52 58.34 120.12C55.34 114.6 53.84 108 53.84 100.32C53.84 89.76 57.74 80.58 65.54 72.78C73.46 64.86 84.2 60.9 97.76 60.9C104.96 60.9 111.5 61.86 117.38 63.78C123.38 65.58 127.52 67.44 129.8 69.36L134.3 72.78C138.02 76.26 139.88 79.2 139.88 81.6C139.88 84 138.44 87.3 135.56 91.5C131.48 97.5 127.28 100.5 122.96 100.5C120.44 100.5 117.32 99.3 113.6 96.9C113.24 96.66 112.52 96.06 111.44 95.1C110.48 94.14 109.58 93.36 108.74 92.76C106.22 91.2 102.98 90.42 99.02 90.42C95.18 90.42 91.94 91.38 89.3 93.3C86.78 95.1 85.52 97.68 85.52 101.04C85.52 104.28 87.02 106.92 90.02 108.96C93.14 111 96.98 112.38 101.54 113.1C106.1 113.82 111.08 114.96 116.48 116.52C121.88 117.96 126.86 119.76 131.42 121.92C135.98 124.08 139.76 127.86 142.76 133.26C145.88 138.54 147.44 145.08 147.44 152.88C147.44 160.68 145.88 167.58 142.76 173.58C139.64 179.46 135.56 184.02 130.52 187.26C120.8 193.62 110.42 196.8 99.38 196.8C93.74 196.8 88.4 196.14 83.36 194.82C78.32 193.38 74.24 191.64 71.12 189.6C64.76 185.76 60.32 182.04 57.8 178.44L56.18 176.46Z" fill="white"/>
<path d="M239.241 160.44L242.481 158.1C246.561 155.7 249.441 154.5 251.121 154.5C254.841 154.5 258.861 157.86 263.181 164.58C265.821 168.78 267.141 172.14 267.141 174.66C267.141 177.18 266.301 179.28 264.621 180.96C263.061 182.64 261.201 184.14 259.041 185.46C256.881 186.78 254.781 188.04 252.741 189.24C250.821 190.44 246.801 192 240.681 193.92C234.561 195.84 228.621 196.8 222.861 196.8C217.221 196.8 211.461 196.08 205.581 194.64C199.821 193.08 193.821 190.56 187.581 187.08C181.461 183.48 175.941 179.16 171.021 174.12C166.101 168.96 162.021 162.42 158.781 154.5C155.661 146.46 154.101 137.76 154.101 128.4C154.101 119.04 155.661 110.58 158.781 103.02C161.901 95.34 165.861 89.04 170.661 84.12C175.581 79.08 181.161 74.88 187.401 71.52C199.161 65.04 210.981 61.8 222.861 61.8C228.501 61.8 234.201 62.7 239.961 64.5C245.841 66.18 250.281 67.92 253.281 69.72L257.601 72.24C259.761 73.56 261.441 74.64 262.641 75.48C265.761 78 267.321 80.88 267.321 84.12C267.321 87.24 266.061 90.54 263.541 94.02C258.861 100.5 254.661 103.74 250.941 103.74C248.781 103.74 245.721 102.42 241.761 99.78C236.721 95.7 230.001 93.66 221.601 93.66C213.801 93.66 206.121 96.36 198.561 101.76C194.961 104.4 191.961 108.12 189.561 112.92C187.161 117.72 185.961 123.18 185.961 129.3C185.961 135.3 187.161 140.7 189.561 145.5C191.961 150.3 195.021 154.08 198.741 156.84C206.061 162.12 213.681 164.76 221.601 164.76C225.321 164.76 228.801 164.28 232.041 163.32C235.401 162.36 237.801 161.4 239.241 160.44Z" fill="white"/>
<path d="M358.169 67.92C359.129 66.12 360.749 64.86 363.029 64.14C365.309 63.42 368.189 63.06 371.669 63.06C375.149 63.06 377.909 63.36 379.949 63.96C381.989 64.56 383.549 65.28 384.629 66.12C385.709 66.96 386.549 68.16 387.149 69.72C387.749 71.76 388.049 74.88 388.049 79.08V178.98C388.049 181.74 387.929 183.84 387.689 185.28C387.569 186.6 387.029 188.16 386.069 189.96C384.389 193.2 379.709 194.82 372.029 194.82C363.629 194.82 358.709 192.6 357.269 188.16C356.549 186.12 356.189 183 356.189 178.8V142.26H308.489V178.98C308.489 181.74 308.369 183.84 308.129 185.28C308.009 186.6 307.469 188.16 306.509 189.96C304.829 193.2 300.149 194.82 292.469 194.82C284.069 194.82 279.149 192.6 277.709 188.16C276.989 186.12 276.629 183 276.629 178.8V78.9C276.629 76.14 276.689 74.1 276.809 72.78C277.049 71.34 277.649 69.72 278.609 67.92C280.289 64.68 284.969 63.06 292.649 63.06C301.049 63.06 306.029 65.28 307.589 69.72C308.189 71.76 308.489 74.88 308.489 79.08V115.8H356.189V78.9C356.189 76.14 356.249 74.1 356.369 72.78C356.609 71.34 357.209 69.72 358.169 67.92Z" fill="white"/>
<path d="M486.369 67.92C487.569 66 489.309 64.68 491.589 63.96C493.869 63.24 496.689 62.88 500.049 62.88C503.529 62.88 506.289 63.18 508.329 63.78C510.369 64.38 511.929 65.1 513.009 65.94C514.089 66.78 514.869 68.04 515.349 69.72C516.069 71.76 516.429 74.88 516.429 79.08V133.44C516.429 149.28 511.509 163.68 501.669 176.64C496.869 182.76 490.689 187.74 483.129 191.58C475.569 195.3 467.169 197.16 457.929 197.16C448.809 197.16 440.469 195.24 432.909 191.4C425.469 187.56 419.409 182.52 414.729 176.28C405.009 163.56 400.149 149.16 400.149 133.08V78.9C400.149 76.02 400.209 73.92 400.329 72.6C400.569 71.16 401.169 69.54 402.129 67.74C403.089 65.94 404.709 64.68 406.989 63.96C409.269 63.24 412.329 62.88 416.169 62.88C420.009 62.88 423.069 63.24 425.349 63.96C427.629 64.68 429.189 65.94 430.029 67.74C431.469 70.5 432.189 74.28 432.189 79.08V133.08C432.189 140.4 433.989 147.36 437.589 153.96C439.389 157.32 442.089 160.02 445.689 162.06C449.289 164.1 453.549 165.12 458.469 165.12C467.229 165.12 473.769 161.88 478.089 155.4C482.409 148.92 484.569 141.42 484.569 132.9V77.82C484.569 73.14 485.169 69.84 486.369 67.92Z" fill="white"/>
<path d="M560.274 168.36H609.234C613.194 168.36 616.074 168.84 617.874 169.8C619.674 170.64 620.874 172.02 621.474 173.94C622.074 175.86 622.374 178.44 622.374 181.68C622.374 184.8 622.074 187.32 621.474 189.24C620.874 191.16 619.854 192.48 618.414 193.2C616.134 194.4 613.014 195 609.054 195H544.254C535.854 195 530.934 192.72 529.494 188.16C528.774 186.24 528.414 183.18 528.414 178.98V78.9C528.414 76.14 528.474 74.1 528.594 72.78C528.834 71.34 529.434 69.72 530.394 67.92C532.074 64.68 536.754 63.06 544.434 63.06C552.834 63.06 557.814 65.28 559.374 69.72C559.974 71.76 560.274 74.88 560.274 79.08V168.36Z" fill="white"/>
<path d="M663.579 163.14H719.019C721.779 163.14 723.819 163.26 725.139 163.5C726.579 163.62 728.199 164.16 729.999 165.12C733.239 166.8 734.859 171.48 734.859 179.16C734.859 187.56 732.639 192.48 728.199 193.92C726.159 194.64 723.039 195 718.839 195H647.559C639.159 195 634.239 192.72 632.799 188.16C632.079 186.24 631.719 183.18 631.719 178.98V78.9C631.719 72.78 632.859 68.64 635.139 66.48C637.419 64.2 641.739 63.06 648.099 63.06H719.019C721.779 63.06 723.819 63.18 725.139 63.42C726.579 63.54 728.199 64.08 729.999 65.04C733.239 66.72 734.859 71.4 734.859 79.08C734.859 87.48 732.639 92.4 728.199 93.84C726.159 94.56 723.039 94.92 718.839 94.92H663.579V113.1H699.219C701.979 113.1 704.019 113.22 705.339 113.46C706.779 113.58 708.399 114.12 710.199 115.08C713.439 116.76 715.059 121.44 715.059 129.12C715.059 137.52 712.779 142.44 708.219 143.88C706.179 144.6 703.059 144.96 698.859 144.96H663.579V163.14Z" fill="white"/>
<path d="M845.144 172.68C846.944 177 847.844 180.12 847.844 182.04C847.844 186.6 844.124 190.44 836.684 193.56C832.844 195.24 829.724 196.08 827.324 196.08C825.044 196.08 823.124 195.54 821.564 194.46C820.124 193.26 819.044 192.06 818.324 190.86C817.124 188.58 812.444 177.72 804.284 158.28L798.704 158.64H776.024V178.98C776.024 181.74 775.904 183.84 775.664 185.28C775.544 186.6 775.004 188.16 774.044 189.96C772.364 193.2 767.684 194.82 760.004 194.82C751.604 194.82 746.684 192.6 745.244 188.16C744.524 186.12 744.164 183 744.164 178.8V78.9C744.164 76.14 744.224 74.1 744.344 72.78C744.584 71.34 745.184 69.72 746.144 67.92C747.824 64.68 752.504 63.06 760.184 63.06H799.064C809.624 63.06 819.884 66.9 829.844 74.58C834.644 78.3 838.604 83.34 841.724 89.7C844.844 96.06 846.404 103.14 846.404 110.94C846.404 124.5 841.904 135.66 832.904 144.42C835.544 150.78 839.624 160.2 845.144 172.68ZM776.024 126.78H799.064C802.544 126.78 806.024 125.46 809.504 122.82C812.984 120.18 814.724 116.22 814.724 110.94C814.724 105.66 812.984 101.7 809.504 99.06C806.024 96.3 802.424 94.92 798.704 94.92H776.024V126.78Z" fill="white"/>
<path d="M453 43C453 52.3888 445.389 60 436 60C426.611 60 419 52.3888 419 43C419 33.6112 426.611 26 436 26C445.389 26 453 33.6112 453 43Z" fill="white"/>
<path d="M501 43C501 52.3888 493.389 60 484 60C474.611 60 467 52.3888 467 43C467 33.6112 474.611 26 484 26C493.389 26 501 33.6112 501 43Z" fill="white"/>
</svg>
